<svg xmlns="http://www.w3.org/2000/svg" width="163" height="151" fill="none" viewBox="0 0 163 151">
  <path fill="#B8A293" d="M95.198 31.103c-1-2.155-3.22-3.54-5.534-4.218-2.314-.678-4.752-.678-7.16-.77-2.688-.123-5.408-.339-8.065-.092-2.689.246-5.377 1.047-7.472 2.71-2.095 1.662-3.47 4.371-3.064 6.989l-.156 7.728c-.376 5.788 1.25 11.7 4.595 16.473.938 1.354 2.033 2.617 3.47 3.448 1.72.985 3.815 1.17 5.816 1.2 2.25.032 4.596-.184 6.596-1.17 1.657-.8 2.97-2.124 4.252-3.417 1.938-1.97 3.877-4.064 4.846-6.62 1.438-3.756.688-7.944 1.313-11.916.25-1.724.781-3.417 1.063-5.172.25-1.755.25-3.572-.5-5.173Z"/>
  <path fill="#776C62" d="M57.71 38.025c-1.218 1.417-3.876 1.355-4.564 3.08-.562 1.354.563 2.801 1.782 3.694 1.188.893 2.627 1.663 3.064 3.079.344 1.078.031 2.34.657 3.294.75 1.14 2.376 1.201 3.532 1.91.813.492 1.376 1.293 2.064 1.908.719.616 1.72 1.078 2.595.709a41.228 41.228 0 0 1-2.032-13.332c.03-1.57.218-3.295 1.375-4.342.438-.37.938-.646 1.344-1.047.407-.4.657-1.047.344-1.509-.125-.215-.343-.369-.562-.492-1.907-1.2-4.346-1.509-6.503-.955-3.064.832-1.5 2.125-3.095 4.003Z"/>
  <path fill="#97A8B2" d="M57.994 16.813c-1 1.324-2.157 2.802-1.939 4.434.094.77.5 1.447.594 2.186.125.924-.219 1.848-.437 2.74-.407 1.725-.282 3.757 1 4.773 1.032.831 2.501.708 3.845.523a7588.445 7588.445 0 0 0 26.262-3.263c2.313-.277 4.627-.585 6.846-1.386 1.407-.492 2.939-1.478 3.095-3.048.094-.831-.25-1.632-.688-2.279-1.531-2.216-4.439-3.417-4.908-6.188-.187-1.109.063-2.279.031-3.387-.062-3.233-2.407-5.881-5.127-7.082-2.72-1.2-5.815-1.262-8.785-1.355-3.001-.092-6.065-.277-8.722-1.693-.844-.462-1.782-1.047-2.689-.708-1.594.554-3.126 4.495-3.72 6.188-1.25 3.541-2.376 6.559-4.658 9.545Z"/>
  <path fill="#537082" d="M59.28 36.738c3.938.092 7.909-.924 11.817-1.663a94.241 94.241 0 0 1 22.353-1.663c1.75.093 3.658.154 5.064-1.047 1.845-1.57 1.876-4.772.5-6.712-.468-.646-1.062-1.231-1.812-1.478-.75-.246-1.564-.184-2.345-.092a233.791 233.791 0 0 0-25.98 4.156c-3.97.863-8.628 1.417-12.443 3.08-4.69 2.093-.062 5.357 2.845 5.419Z"/>
  <path fill="#67302D" d="M97.134 65.733c4.19 1.57 5.347 6.589 5.972 10.869a1412.509 1412.509 0 0 0 17.57 98.836c.437 1.971.844 4.003.5 5.973-.469 2.772-2.439 5.173-4.69 6.991-7.409 6.033-17.85 7.082-27.574 7.605-12.88.677-25.948.861-38.547-1.849-3.44-.738-7.254-2.001-8.692-5.079-.938-1.972-.656-4.219-.375-6.374 3.033-23.093 6.065-46.155 9.129-69.247 1.5-11.3 2.501-22.754 4.47-33.962 1.095-6.25 3.815-11.423 10.63-13.086 4.314-1.047 8.723-.43 13.068-.215 5.503.308 13.38-2.402 18.54-.462Z"/>
  <path fill="#67302D" d="M30.384 121.375c1.344-5.727 2.72-11.515 5.127-16.657 2-4.249 4.69-7.975 7.41-11.608 5.783-7.79 11.754-15.364 17.882-22.785.625-.739 1.313-1.54 2.22-1.54 1.157 0 2 1.294 2.626 2.464 4.97 8.99 8.347 13.147 5.471 23.062-1.594 5.419-5.409 9.945-8.879 13.886-13.1 14.903-25.417 37.072-30.638 57.978-.563 2.217-1.063 4.557-2.407 6.189-1.782 2.186-8.316.801-10.036-2.463-1.5-2.833 1.032-10.777 1.563-13.979 2.064-12.008 6.878-22.785 9.66-34.547Zm90.912-28.451c7.535 10.869 11.537 24.324 13.068 37.964 1.532 13.64 3.033 27.988 1.657 41.721-.062.462-.125.985-.437 1.293-.313.308-.782.308-1.22.308-1.469-.031-6.065-.554-8.91-.801a2.02 2.02 0 0 1-1.844-2.001c0-9.668-.688-19.336-2.095-28.85-.969-6.559-1.938-13.456-5.596-18.69-5.283-7.544-12.099-10.284-17.914-17.366-4.752-5.788-6.815-13.763-7.128-21.614-.219-5.697.938-25.68 10.036-16.412 7.065 7.236 14.537 16.042 20.383 24.448Z"/>
  <path fill="#333" d="M70.655 90.245c-.156 9.052-.312 18.136-.156 27.188.125 6.928.438 13.855.219 20.814-.281 9.576-1.563 19.121-3.752 28.45-.25 1.047-.531 2.186-1.313 2.956-1.031 1.078-2.657 1.293-4.158 1.447-7.034.739-14.506 1.386-20.821-1.724-.438-.216-.907-.493-1.126-.893-.219-.4-.219-.862-.187-1.293.156-1.848.906-3.572 1.375-5.358 1.126-4.279.563-8.806 1.032-13.209.375-3.387 1.376-6.681 2.282-9.976a266.707 266.707 0 0 0 9.348-54.991c.188-2.894.313-5.85 1.188-8.621.844-2.771 2.532-5.45 5.096-6.866 1.688-.955 3.564-2.772 5.502-2.925 1.657-.154 4.971-.801 5.784.8.813 1.632.031 7.205 0 9.052-.125 5.02-.219 10.069-.313 15.15Zm13.82-14.31c.844 16.78 1.688 33.531 2.5 50.311.595 11.854 1.189 23.739.626 35.563-.062 1.17-.094 2.432.532 3.417.844 1.294 2.563 1.694 4.126 1.879a53.955 53.955 0 0 0 22.604-1.879c1.219-.369 2.532-.862 3.188-1.939.532-.893.532-1.971.501-2.987-.719-24.909-9.473-48.802-14.256-73.25-1.313-6.712-2.345-13.547-4.565-20.013-.219-.647-.469-1.294-1-1.725-.594-.462-1.407-.492-2.157-.523l-10.38-.277c-4.033-.093-1.844 8.929-1.72 11.423Z"/>
  <path fill="#1F1F1F" d="M66.373 145.829c.187 0 .375 0 .53-.123.157-.123.157-.339.157-.554 0-.893-.03-1.755-.03-2.648-6.379.677-12.82-1.57-19.228-.955a.476.476 0 0 0-.344.123c-.125.093-.125.277-.125.432 0 1.57-.156 2.401 1.438 2.863 1.751.493 4.033.308 5.846.431 3.908.216 7.848.431 11.756.431Zm-.693-16.783c.126 0 .282.031.407-.061.094-.093.125-.247.125-.401v-1.663c0-.153 0-.307-.094-.43-.156-.216-.5-.216-.75-.216-2.751.216-5.534.277-8.285.246-2.188-.03-5.596-.893-7.628-.246.563 2.125 4.533 1.755 6.159 1.909 3.314.277 6.69.554 10.067.862Zm45.266 11.951c.25 0 .5 0 .657.184.125.123.125.308.156.493.032.492.063.985.125 1.478 0 .092 0 .215-.062.308-.063.092-.219.123-.344.123l-17.82 1.108c-.157 0-.344 0-.438-.092-.125-.092-.156-.246-.156-.4-.313-2.71 5.784-2.34 7.753-2.556 3.345-.369 6.753-.585 10.129-.646Zm-2.465-13.363c.281 0 .594 0 .75-.185.157-.185.156-.462.156-.677 0-.401-.031-.832-.031-1.232 0-.154 0-.277-.094-.4-.125-.123-.343-.123-.531-.123l-16.257.831c-.125 0-.25.031-.313.092-.062.062-.094.185-.094.277-.28 3.326 4.346 1.694 6.503 1.571a117.67 117.67 0 0 1 9.911-.154Z"/>
</svg>
